<?xml version="1.0" standalone="no"?><!-- Generator: Gravit.io --><svg xmlns="http://www.w3.org/2000/svg" xmlns:xlink="http://www.w3.org/1999/xlink" style="isolation:isolate" viewBox="0 0 200 200" width="200" height="200"><defs><clipPath id="_clipPath_ABRr7EnFUGsHql2fd5dPMqRtTVS0EU31"><rect width="200" height="200"/></clipPath></defs><g clip-path="url(#_clipPath_ABRr7EnFUGsHql2fd5dPMqRtTVS0EU31)"><path d="M 19.281 143.625 L 176.719 143.625 C 178.53 143.625 180 145.06 180 146.828 L 180 146.828 C 180 148.596 178.53 150.031 176.719 150.031 L 19.281 150.031 C 17.47 150.031 16 148.596 16 146.828 L 16 146.828 C 16 145.06 17.47 143.625 19.281 143.625 Z" style="stroke:none;fill:#200112;stroke-miterlimit:10;"/><path d=" M 170.988 171.812 C 171.016 170.962 171.031 170.108 171.031 169.25 L 171.031 110.312 C 171.031 70.713 138.881 38.562 99.281 38.562 L 99.281 38.562 C 59.681 38.562 27.531 70.713 27.531 110.312 L 27.531 169.25 C 27.531 170.108 27.546 170.962 27.575 171.812 L 170.988 171.812 Z " fill="rgb(123,132,133)"/><rect x="27.531" y="162.148" width="143.5" height="37.852" transform="matrix(1,0,0,1,0,0)" fill="rgb(111,112,117)"/><rect x="24.969" y="139.781" width="2.563" height="60.219" transform="matrix(1,0,0,1,0,0)" fill="rgb(111,112,117)"/><rect x="171.031" y="139.781" width="2.563" height="60.219" transform="matrix(1,0,0,1,0,0)" fill="rgb(111,112,117)"/><path d=" M 95.438 62.906 C 95.438 39.571 97.16 20.625 99.281 20.625 C 101.403 20.625 103.125 39.571 103.125 62.906 C 103.125 86.242 101.403 105.187 99.281 105.187 C 97.16 105.187 95.438 86.242 95.438 62.906 Z " fill="rgb(86,86,84)"/><g id="Group"><g opacity="0.59"><path d=" M 46.109 118.641 C 46.109 109.801 53.286 102.625 62.125 102.625 C 70.964 102.625 78.141 109.801 78.141 118.641 C 78.141 127.48 70.964 134.656 62.125 134.656 C 53.286 134.656 46.109 127.48 46.109 118.641 Z " fill="rgb(253,244,68)"/></g><g opacity="0.59"><path d=" M 49.766 118.641 C 49.766 111.819 55.304 106.281 62.125 106.281 C 68.946 106.281 74.484 111.819 74.484 118.641 C 74.484 125.462 68.946 131 62.125 131 C 55.304 131 49.766 125.462 49.766 118.641 Z " fill="rgb(253,244,68)"/></g><g opacity="0.59"><path d=" M 54.25 118.641 C 54.25 114.294 57.779 110.766 62.125 110.766 C 66.471 110.766 70 114.294 70 118.641 C 70 122.987 66.471 126.516 62.125 126.516 C 57.779 126.516 54.25 122.987 54.25 118.641 Z " fill="rgb(253,244,68)"/></g></g><g id="Group"><g opacity="0.59"><path d=" M 120 118.641 C 120 109.801 127.176 102.625 136.016 102.625 C 144.855 102.625 152.031 109.801 152.031 118.641 C 152.031 127.48 144.855 134.656 136.016 134.656 C 127.176 134.656 120 127.48 120 118.641 Z " fill="rgb(253,244,68)"/></g><g opacity="0.59"><path d=" M 123.656 118.641 C 123.656 111.819 129.194 106.281 136.016 106.281 C 142.837 106.281 148.375 111.819 148.375 118.641 C 148.375 125.462 142.837 131 136.016 131 C 129.194 131 123.656 125.462 123.656 118.641 Z " fill="rgb(253,244,68)"/></g><g opacity="0.59"><path d=" M 128.141 118.641 C 128.141 114.294 131.669 110.766 136.016 110.766 C 140.362 110.766 143.891 114.294 143.891 118.641 C 143.891 122.987 140.362 126.516 136.016 126.516 C 131.669 126.516 128.141 122.987 128.141 118.641 Z " fill="rgb(253,244,68)"/></g></g></g></svg>