<?xml version="1.0" standalone="no"?>
<!DOCTYPE svg PUBLIC "-//W3C//DTD SVG 20010904//EN"
 "http://www.w3.org/TR/2001/REC-SVG-20010904/DTD/svg10.dtd">
<svg version="1.0" xmlns="http://www.w3.org/2000/svg"
 width="300.000000pt" height="142.000000pt" viewBox="0 0 300.000000 142.000000"
 preserveAspectRatio="xMidYMid meet">

<g transform="translate(0.000000,142.000000) scale(0.100000,-0.100000)"
fill="#000000" stroke="none">
<path d="M1070 1359 c0 -6 9 -8 20 -4 14 5 20 2 20 -10 0 -9 5 -13 10 -10 8 5
7 11 -1 21 -13 16 -49 19 -49 3z"/>
<path d="M1642 1330 c0 -19 2 -27 5 -17 2 9 2 25 0 35 -3 9 -5 1 -5 -18z"/>
<path d="M1145 1340 c3 -5 8 -10 11 -10 2 0 4 5 4 10 0 6 -5 10 -11 10 -5 0
-7 -4 -4 -10z"/>
<path d="M1813 1318 c-2 -18 0 -20 7 -8 8 12 12 13 19 2 6 -11 10 -9 14 7 4
17 1 21 -17 21 -15 0 -22 -7 -23 -22z"/>
<path d="M1701 1314 c0 -11 3 -14 6 -6 3 7 2 16 -1 19 -3 4 -6 -2 -5 -13z"/>
<path d="M1071 1263 c1 -27 4 -38 6 -25 2 12 9 22 14 22 5 0 9 11 9 25 0 16
-6 25 -15 25 -11 0 -15 -11 -14 -47z m16 15 c-3 -8 -6 -5 -6 6 -1 11 2 17 5
13 3 -3 4 -12 1 -19z"/>
<path d="M1122 1263 c-2 -32 2 -43 13 -43 11 0 15 11 14 43 l-2 42 -7 -40 -6
-40 -6 40 -5 40 -1 -42z"/>
<path d="M1170 1260 c0 -34 3 -41 18 -38 12 2 17 13 17 38 0 25 -5 36 -17 38
-15 3 -18 -4 -18 -38z m25 1 c-2 -35 -15 -36 -15 -2 0 18 4 30 8 27 5 -3 8
-14 7 -25z"/>
<path d="M1220 1262 c0 -33 4 -42 18 -42 9 0 13 3 7 8 -6 4 -12 21 -14 37 -5
45 -11 44 -11 -3z"/>
<path d="M1273 1260 c0 -25 2 -35 4 -22 2 12 2 32 0 45 -2 12 -4 2 -4 -23z"/>
<path d="M1300 1260 c0 -29 4 -40 15 -40 8 0 15 8 15 18 0 14 -2 15 -10 2 -7
-11 -10 -7 -10 18 0 20 4 31 10 27 6 -3 10 -1 10 4 0 6 -7 11 -15 11 -11 0
-15 -11 -15 -40z"/>
<path d="M1891 1254 c0 -11 3 -14 6 -6 3 7 2 16 -1 19 -3 4 -6 -2 -5 -13z"/>
<path d="M1916 1255 c-3 -8 -1 -15 3 -15 5 0 11 7 15 15 3 8 1 15 -3 15 -5 0
-11 -7 -15 -15z"/>
<path d="M927 1253 c-14 -13 -6 -20 23 -21 20 0 30 4 30 14 0 14 -41 20 -53 7z"/>
<path d="M990 1242 c0 -11 3 -12 14 -3 11 9 15 9 19 -1 4 -9 6 -7 6 4 1 11 -6
16 -19 15 -11 -1 -20 -8 -20 -15z"/>
<path d="M1502 1233 c12 -15 32 -18 23 -4 -3 5 3 12 12 14 10 2 4 4 -14 3 -24
-1 -29 -4 -21 -13z"/>
<path d="M1988 1243 c7 -3 16 -2 19 1 4 3 -2 6 -13 5 -11 0 -14 -3 -6 -6z"/>
<path d="M1400 1219 c0 -13 28 -18 33 -6 3 7 -3 13 -14 13 -11 0 -19 -3 -19
-7z"/>
<path d="M1890 1219 c0 -5 5 -7 10 -4 6 3 10 8 10 11 0 2 -4 4 -10 4 -5 0 -10
-5 -10 -11z"/>
<path d="M905 1197 c-4 -13 -5 -41 -3 -63 2 -32 7 -40 26 -42 18 -3 22 1 21
20 -1 17 -3 18 -6 6 -9 -36 -23 -17 -23 32 0 47 11 65 24 38 3 -7 5 -4 3 7 -3
30 -35 31 -42 2z"/>
<path d="M1960 1205 c0 -8 5 -15 10 -15 6 0 10 7 10 15 0 8 -4 15 -10 15 -5 0
-10 -7 -10 -15z"/>
<path d="M972 1180 c-4 -12 -6 -37 -4 -56 4 -28 8 -34 29 -34 23 0 24 3 21 52
-2 41 -7 54 -21 56 -10 2 -20 -5 -25 -18z m33 -36 c-6 -52 -15 -55 -15 -6 0
23 4 42 10 42 6 0 8 -16 5 -36z"/>
<path d="M1040 1145 c0 -30 4 -55 9 -55 10 0 22 77 14 96 -12 31 -23 11 -23
-41z"/>
<path d="M1085 1164 c-19 -45 -19 -65 0 -41 13 18 14 17 18 -10 2 -15 5 -2 6
30 0 31 -1 57 -4 57 -3 0 -12 -16 -20 -36z"/>
<path d="M1141 1143 c1 -32 3 -50 6 -40 3 11 11 16 19 13 9 -4 14 2 14 15 0
14 -5 19 -13 16 -10 -4 -13 2 -9 18 2 12 -1 26 -7 29 -8 5 -11 -11 -10 -51z"/>
<path d="M1185 1188 c-3 -7 -1 -33 4 -58 l9 -45 1 58 c1 55 -4 71 -14 45z"/>
<path d="M1230 1192 c-3 -7 -3 -33 -2 -58 4 -40 7 -45 26 -42 18 3 21 11 24
56 2 31 -1 52 -7 52 -6 0 -11 -22 -11 -50 0 -66 -18 -64 -22 3 -2 28 -5 46 -8
39z"/>
<path d="M1300 1143 c1 -53 2 -56 14 -34 l13 23 8 -23 c7 -21 9 -18 14 21 4
25 4 52 1 60 -2 8 -7 -1 -10 -20 l-5 -35 -12 33 c-7 17 -14 32 -17 32 -4 0 -6
-26 -6 -57z"/>
<path d="M1386 1178 c-13 -64 -15 -88 -7 -88 5 0 12 6 15 13 5 10 7 10 12 0 9
-19 23 -16 19 5 -2 9 -7 34 -10 55 -7 41 -22 49 -29 15z m20 -45 c-10 -10 -19
5 -10 18 6 11 8 11 12 0 2 -7 1 -15 -2 -18z"/>
<path d="M1452 1148 c-2 -54 -1 -58 21 -57 16 1 17 3 5 6 -13 3 -18 18 -21 56
l-3 52 -2 -57z"/>
<path d="M866 1175 c4 -8 10 -15 15 -15 5 0 9 7 9 15 0 8 -7 15 -15 15 -9 0
-12 -6 -9 -15z"/>
<path d="M2087 1169 c7 -7 15 -10 18 -7 3 3 -2 9 -12 12 -14 6 -15 5 -6 -5z"/>
<path d="M825 1160 c3 -5 8 -10 11 -10 2 0 4 5 4 10 0 6 -5 10 -11 10 -5 0 -7
-4 -4 -10z"/>
<path d="M761 1118 c-1 -25 2 -28 33 -28 29 0 33 3 29 20 -6 23 -23 27 -23 5
0 -24 -28 -17 -33 8 -4 19 -4 18 -6 -5z"/>
<path d="M847 1123 c-4 -3 -7 -16 -7 -27 0 -16 7 -21 30 -23 35 -3 34 -4 15
33 -14 27 -15 27 -15 7 0 -13 -4 -23 -9 -23 -5 0 -7 9 -4 20 5 20 2 25 -10 13z"/>
<path d="M730 1100 c0 -5 5 -10 10 -10 6 0 10 5 10 10 0 6 -4 10 -10 10 -5 0
-10 -4 -10 -10z"/>
<path d="M710 1071 c0 -5 10 -11 23 -15 33 -9 37 -8 37 9 0 10 -10 15 -30 15
-16 0 -30 -4 -30 -9z"/>
<path d="M796 1063 c-6 -14 -5 -15 5 -6 7 7 10 15 7 18 -3 3 -9 -2 -12 -12z"/>
<path d="M1270 1070 c-23 -7 -23 -8 -3 -9 12 -1 25 4 28 9 3 6 5 10 3 9 -2 -1
-14 -5 -28 -9z"/>
<path d="M1460 1075 c0 -5 5 -17 10 -25 9 -13 10 -13 10 0 0 13 1 13 10 0 5
-8 10 -10 10 -5 0 6 -5 17 -10 25 -9 13 -10 13 -10 0 0 -13 -1 -13 -10 0 -5 8
-10 11 -10 5z"/>
<path d="M1688 1073 c7 -3 16 -2 19 1 4 3 -2 6 -13 5 -11 0 -14 -3 -6 -6z"/>
<path d="M2030 1074 c0 -2 9 -8 20 -14 11 -6 20 -7 20 -2 0 6 -9 12 -20 15
-11 3 -20 3 -20 1z"/>
<path d="M2250 1059 c0 -5 5 -7 10 -4 6 3 10 8 10 11 0 2 -4 4 -10 4 -5 0 -10
-5 -10 -11z"/>
<path d="M1441 1044 c0 -11 3 -14 6 -6 3 7 2 16 -1 19 -3 4 -6 -2 -5 -13z"/>
<path d="M1961 1013 c1 -38 3 -43 8 -23 l8 25 5 -25 c3 -16 6 -8 7 23 1 36 -3
47 -14 47 -11 0 -15 -12 -14 -47z m16 15 c-3 -8 -6 -5 -6 6 -1 11 2 17 5 13 3
-3 4 -12 1 -19z"/>
<path d="M1383 1035 c0 -8 4 -12 9 -9 5 3 6 10 3 15 -9 13 -12 11 -12 -6z"/>
<path d="M2146 1043 c-3 -3 -6 -21 -6 -40 0 -23 5 -33 15 -33 8 0 15 8 15 18
0 14 -2 15 -10 2 -7 -11 -10 -6 -10 20 0 26 3 31 10 20 6 -9 10 -10 10 -3 0
15 -15 25 -24 16z"/>
<path d="M705 1011 c3 -18 5 -44 5 -57 0 -42 18 -26 29 26 13 62 13 60 1 60
-5 0 -10 -17 -11 -37 l-1 -38 -14 40 c-14 38 -14 39 -9 6z"/>
<path d="M2029 1002 c5 -34 6 -35 9 -8 2 16 0 32 -5 37 -5 5 -7 -7 -4 -29z"/>
<path d="M2062 1008 c-2 -28 2 -38 13 -38 11 0 15 10 14 38 l-2 37 -7 -35 -7
-35 -5 35 -5 35 -1 -37z"/>
<path d="M2113 1005 c0 -22 2 -30 4 -17 2 12 2 30 0 40 -3 9 -5 -1 -4 -23z"/>
<path d="M2190 1021 c0 -11 -3 -28 -7 -38 -3 -10 -3 -15 1 -12 12 11 25 69 15
69 -5 0 -9 -9 -9 -19z"/>
<path d="M767 978 c-6 -47 -1 -61 13 -38 7 10 10 11 10 3 0 -7 3 -13 8 -13 4
0 6 20 4 45 -5 58 -27 60 -35 3z m20 -10 c-3 -7 -5 -2 -5 12 0 14 2 19 5 13 2
-7 2 -19 0 -25z"/>
<path d="M831 1020 c-2 -3 -4 -24 -5 -47 -2 -38 0 -43 18 -43 13 0 17 3 9 8
-6 4 -13 25 -16 47 -2 22 -5 38 -6 35z"/>
<path d="M882 978 c-2 -42 1 -48 18 -48 17 0 20 6 18 48 l-1 47 -4 -42 c-2
-24 -8 -43 -13 -43 -5 0 -11 19 -13 43 l-4 42 -1 -47z"/>
<path d="M940 975 c0 -39 3 -45 21 -45 19 0 19 1 3 17 -11 11 -13 18 -5 21 7
2 8 9 1 22 -8 14 -6 20 8 23 13 4 11 5 -5 6 -21 1 -23 -4 -23 -44z"/>
<path d="M1870 1005 c0 -10 10 -15 30 -15 20 0 30 5 30 15 0 10 -10 15 -30 15
-20 0 -30 -5 -30 -15z"/>
<path d="M1941 1004 c0 -11 3 -14 6 -6 3 7 2 16 -1 19 -3 4 -6 -2 -5 -13z"/>
<path d="M2012 995 c0 -16 2 -22 5 -12 2 9 2 23 0 30 -3 6 -5 -1 -5 -18z"/>
<path d="M1403 995 c0 -7 9 -13 19 -12 10 1 18 2 18 4 0 1 -8 7 -18 12 -14 7
-19 6 -19 -4z"/>
<path d="M1446 995 c4 -8 8 -15 10 -15 2 0 4 7 4 15 0 8 -4 15 -10 15 -5 0 -7
-7 -4 -15z"/>
<path d="M1475 1000 c-3 -6 1 -7 9 -4 18 7 21 14 7 14 -6 0 -13 -4 -16 -10z"/>
<path d="M2378 973 c6 -2 18 -2 25 0 6 3 1 5 -13 5 -14 0 -19 -2 -12 -5z"/>
<path d="M2420 940 c0 -5 7 -10 16 -10 8 0 12 5 9 10 -3 6 -10 10 -16 10 -5 0
-9 -4 -9 -10z"/>
<path d="M2076 918 c-12 -59 -15 -138 -6 -138 5 0 10 5 10 10 0 6 7 10 15 10
8 0 15 -4 15 -10 0 -5 5 -10 11 -10 10 0 5 97 -7 143 -7 24 -33 21 -38 -5z
m21 -70 c-2 -13 -4 -5 -4 17 -1 22 1 32 4 23 2 -10 2 -28 0 -40z"/>
<path d="M701 903 c0 -11 3 -13 6 -5 2 6 10 9 15 6 7 -4 8 -2 4 4 -11 18 -26
14 -25 -5z"/>
<path d="M2163 913 c-20 -7 -18 -133 2 -133 8 0 15 8 16 18 0 13 3 12 11 -5 6
-13 15 -23 20 -23 10 0 10 3 -2 36 -7 18 -7 30 1 40 25 31 -10 80 -48 67z m28
-50 c-9 -16 -10 -14 -11 12 0 21 3 26 11 18 8 -8 8 -16 0 -30z"/>
<path d="M2243 907 c-4 -6 -1 -13 5 -15 8 -2 12 -26 12 -63 0 -38 4 -58 10
-54 6 3 10 31 10 61 0 32 4 54 11 54 6 0 9 6 7 13 -6 15 -46 18 -55 4z"/>
<path d="M622 891 c-9 -5 -12 -29 -10 -82 3 -72 4 -74 31 -77 15 -2 27 0 28 5
7 70 7 74 -12 84 -18 9 -19 7 -13 -31 4 -27 3 -40 -5 -40 -7 0 -11 22 -11 60
0 33 4 60 10 60 6 0 10 -7 10 -15 0 -8 6 -15 14 -15 18 0 13 40 -6 52 -16 10
-20 10 -36 -1z"/>
<path d="M550 880 c0 -5 5 -10 11 -10 5 0 7 5 4 10 -3 6 -8 10 -11 10 -2 0 -4
-4 -4 -10z"/>
<path d="M2504 867 c-8 -21 2 -35 16 -21 5 5 6 15 0 24 -8 12 -10 12 -16 -3z"/>
<path d="M700 800 c0 -40 4 -70 10 -70 6 0 10 30 10 70 0 40 -4 70 -10 70 -6
0 -10 -30 -10 -70z"/>
<path d="M750 800 c0 -40 4 -70 10 -70 6 0 10 14 10 30 0 20 5 30 15 30 8 0
15 4 15 9 0 5 -7 11 -15 15 -8 3 -15 12 -15 21 0 8 7 15 15 15 8 0 15 5 15 10
0 6 -11 10 -25 10 -24 0 -25 -2 -25 -70z"/>
<path d="M820 860 c0 -5 6 -10 13 -10 8 0 7 -4 -3 -11 -11 -8 -12 -12 -2 -16
7 -3 12 -23 12 -49 0 -32 4 -44 15 -44 12 0 15 13 15 60 0 33 4 60 10 60 6 0
10 5 10 10 0 6 -16 10 -35 10 -19 0 -35 -4 -35 -10z"/>
<path d="M2380 819 c0 -13 -4 -18 -12 -13 -10 5 -10 4 -1 -6 7 -8 15 -11 18
-8 10 10 14 48 4 48 -5 0 -9 -9 -9 -21z"/>
<path d="M2470 833 c0 -5 5 -15 10 -23 8 -12 10 -11 10 8 0 12 -4 22 -10 22
-5 0 -10 -3 -10 -7z"/>
<path d="M2531 824 c0 -11 3 -14 6 -6 3 7 2 16 -1 19 -3 4 -6 -2 -5 -13z"/>
<path d="M1972 818 c2 -6 10 -14 16 -16 7 -2 10 2 6 12 -7 18 -28 22 -22 4z"/>
<path d="M882 795 c0 -16 2 -22 5 -12 2 9 2 23 0 30 -3 6 -5 -1 -5 -18z"/>
<path d="M910 794 c0 -14 4 -23 9 -20 5 3 7 15 4 26 -7 28 -13 25 -13 -6z"/>
<path d="M970 810 c0 -5 -7 -7 -15 -4 -17 7 -21 -21 -5 -31 6 -4 8 -11 5 -16
-4 -5 8 -9 25 -9 17 0 29 4 25 10 -3 5 -12 7 -20 4 -12 -5 -14 0 -9 25 4 17 4
31 0 31 -3 0 -6 -4 -6 -10z"/>
<path d="M2303 803 c9 -2 23 -2 30 0 6 3 -1 5 -18 5 -16 0 -22 -2 -12 -5z"/>
<path d="M2581 794 c0 -11 3 -14 6 -6 3 7 2 16 -1 19 -3 4 -6 -2 -5 -13z"/>
<path d="M1940 765 c0 -24 5 -35 15 -35 10 0 15 11 15 35 0 24 -5 35 -15 35
-10 0 -15 -11 -15 -35z"/>
<path d="M2025 780 c3 -5 8 -10 11 -10 2 0 4 5 4 10 0 6 -5 10 -11 10 -5 0 -7
-4 -4 -10z"/>
<path d="M2508 783 c6 -2 18 -2 25 0 6 3 1 5 -13 5 -14 0 -19 -2 -12 -5z"/>
<path d="M2608 783 c6 -2 18 -2 25 0 6 3 1 5 -13 5 -14 0 -19 -2 -12 -5z"/>
<path d="M425 771 c-3 -6 -12 -8 -20 -4 -8 3 -15 0 -15 -7 0 -6 5 -8 12 -4 8
5 9 -2 5 -27 -5 -24 -4 -30 3 -19 5 8 10 23 10 32 0 9 8 18 18 20 12 2 13 6 5
11 -6 4 -14 3 -18 -2z"/>
<path d="M2347 758 c-3 -12 -2 -29 3 -37 7 -12 9 -6 10 22 0 42 -5 48 -13 15z"/>
<path d="M1980 751 c0 -12 5 -21 10 -21 6 0 10 6 10 14 0 8 -4 18 -10 21 -5 3
-10 -3 -10 -14z"/>
<path d="M2370 742 c0 -18 4 -32 9 -32 4 0 7 12 5 26 -4 38 -14 42 -14 6z"/>
<path d="M2518 740 c-3 -16 -1 -30 4 -30 4 0 8 14 8 30 0 17 -2 30 -4 30 -2 0
-6 -13 -8 -30z"/>
<path d="M2477 741 c-4 -17 -3 -21 5 -13 5 5 8 16 6 23 -3 8 -7 3 -11 -10z"/>
<path d="M430 725 c0 -14 3 -25 8 -25 4 0 7 11 7 25 0 14 -3 25 -7 25 -5 0 -8
-11 -8 -25z"/>
<path d="M467 737 c-3 -8 -1 -20 4 -28 6 -10 9 -7 9 14 0 29 -5 35 -13 14z"/>
<path d="M492 725 c0 -16 2 -22 5 -12 2 9 2 23 0 30 -3 6 -5 -1 -5 -18z"/>
<path d="M560 731 c0 -11 -6 -22 -12 -25 -7 -3 6 -4 28 -2 32 2 46 -2 58 -16
22 -25 75 -22 68 4 -5 19 -52 26 -52 7 0 -6 -7 -4 -15 5 -9 8 -26 13 -39 10
-21 -3 -24 -1 -21 16 2 11 0 20 -6 20 -5 0 -9 -9 -9 -19z m130 -41 c0 -5 -7
-7 -15 -4 -8 4 -15 8 -15 10 0 2 7 4 15 4 8 0 15 -4 15 -10z"/>
<path d="M2025 740 c-3 -5 -1 -10 4 -10 6 0 11 5 11 10 0 6 -2 10 -4 10 -3 0
-8 -4 -11 -10z"/>
<path d="M2260 743 c0 -4 5 -15 10 -23 8 -13 10 -13 10 2 0 9 -4 20 -10 23 -5
3 -10 3 -10 -2z"/>
<path d="M2640 742 c0 -5 7 -9 15 -9 8 0 15 4 15 9 0 4 -7 8 -15 8 -8 0 -15
-4 -15 -8z"/>
<path d="M2680 740 c0 -5 5 -10 10 -10 6 0 10 5 10 10 0 6 -4 10 -10 10 -5 0
-10 -4 -10 -10z"/>
<path d="M795 730 c-3 -5 -1 -10 4 -10 6 0 11 5 11 10 0 6 -2 10 -4 10 -3 0
-8 -4 -11 -10z"/>
<path d="M2221 724 c0 -11 3 -14 6 -6 3 7 2 16 -1 19 -3 4 -6 -2 -5 -13z"/>
<path d="M515 710 c-3 -5 -1 -10 4 -10 6 0 11 5 11 10 0 6 -2 10 -4 10 -3 0
-8 -4 -11 -10z"/>
<path d="M850 706 c0 -9 5 -16 10 -16 6 0 10 4 10 9 0 6 -4 13 -10 16 -5 3
-10 -1 -10 -9z"/>
<path d="M1920 711 c0 -13 32 -23 39 -13 3 5 13 12 21 15 8 3 -2 6 -22 6 -21
1 -38 -3 -38 -8z"/>
<path d="M2000 624 l0 -95 33 3 32 3 2 80 c1 86 -6 105 -43 105 -24 0 -24 -2
-24 -96z m40 41 c0 -14 -4 -25 -10 -25 -5 0 -10 11 -10 25 0 14 5 25 10 25 6
0 10 -11 10 -25z m0 -80 c0 -14 -4 -25 -10 -25 -5 0 -10 11 -10 25 0 14 5 25
10 25 6 0 10 -11 10 -25z"/>
<path d="M710 700 c0 -5 5 -10 11 -10 5 0 7 5 4 10 -3 6 -8 10 -11 10 -2 0 -4
-4 -4 -10z"/>
<path d="M740 706 c0 -2 7 -6 15 -10 8 -3 15 -1 15 4 0 6 -7 10 -15 10 -8 0
-15 -2 -15 -4z"/>
<path d="M790 699 c0 -5 5 -7 10 -4 6 3 10 8 10 11 0 2 -4 4 -10 4 -5 0 -10
-5 -10 -11z"/>
<path d="M2223 693 l-33 -4 0 -80 c0 -64 3 -79 15 -79 10 0 15 10 16 28 l1 27
10 -27 c5 -16 17 -28 25 -28 8 0 13 6 10 13 -15 39 -17 56 -7 62 13 8 13 62 0
70 -6 4 -8 11 -5 16 4 5 5 8 3 7 -2 0 -18 -3 -35 -5z m17 -53 c0 -11 -4 -20
-10 -20 -5 0 -10 9 -10 20 0 11 5 20 10 20 6 0 10 -9 10 -20z"/>
<path d="M2288 613 c3 -64 7 -83 18 -83 9 0 14 12 15 38 l1 37 16 -37 c28 -63
42 -48 42 42 0 64 -3 80 -15 80 -11 0 -15 -12 -16 -42 l-1 -43 -14 41 c-8 23
-23 44 -32 46 -15 4 -17 -4 -14 -79z"/>
<path d="M565 678 c-2 -7 -8 -29 -13 -48 l-9 -35 -12 43 c-18 65 -31 50 -31
-38 0 -47 4 -80 10 -80 6 0 10 19 11 43 0 39 1 40 11 17 10 -24 10 -24 18 -5
7 16 9 12 9 -17 1 -27 5 -38 16 -38 12 0 15 15 15 79 0 72 -13 113 -25 79z"/>
<path d="M2092 613 l3 -78 35 0 35 0 3 78 c2 64 0 77 -13 77 -12 0 -15 -13
-15 -65 0 -37 -4 -65 -10 -65 -6 0 -10 28 -10 65 0 52 -3 65 -15 65 -13 0 -15
-13 -13 -77z"/>
<path d="M2408 680 c-1 -5 -2 -41 0 -80 3 -52 7 -70 18 -70 11 0 14 18 14 80
0 62 -3 80 -14 80 -8 0 -16 -4 -18 -10z"/>
<path d="M2460 610 c0 -64 3 -80 15 -80 11 0 15 11 16 38 l0 37 16 -37 c26
-65 43 -49 43 42 0 63 -3 80 -14 80 -10 0 -16 -14 -18 -42 l-3 -43 -14 43
c-23 70 -41 54 -41 -38z"/>
<path d="M2582 681 c-9 -5 -12 -28 -10 -77 3 -68 3 -69 32 -72 34 -4 46 10 46
56 0 26 -4 32 -21 32 -18 0 -20 -4 -14 -30 4 -19 3 -30 -4 -30 -6 0 -11 21
-11 50 0 46 12 67 23 38 4 -10 7 -10 17 -1 27 25 -24 56 -58 34z"/>
<path d="M812 633 c1 -48 1 -48 5 -8 3 22 10 43 16 47 8 5 6 8 -5 8 -15 0 -18
-8 -16 -47z"/>
<path d="M875 638 c4 -26 3 -29 -4 -13 -9 19 -10 18 -10 -5 -1 -19 4 -26 19
-26 13 0 19 5 15 14 -3 7 -5 25 -5 38 0 13 -4 24 -10 24 -5 0 -7 -15 -5 -32z"/>
<path d="M910 630 c0 -39 1 -40 17 -24 16 15 17 15 24 -2 5 -13 8 -3 8 26 -1
42 -1 43 -11 18 -11 -31 -33 -39 -23 -9 3 11 1 22 -5 26 -6 4 -10 -9 -10 -35z"/>
<path d="M981 628 c0 -24 3 -36 6 -28 4 8 13 20 20 25 17 12 7 45 -13 45 -10
0 -14 -12 -13 -42z m24 23 c3 -5 1 -12 -5 -16 -5 -3 -10 1 -10 9 0 18 6 21 15
7z"/>
<path d="M626 643 c-10 -37 -18 -123 -11 -123 4 0 14 8 21 18 12 16 13 16 19
0 4 -10 11 -18 17 -18 8 0 5 57 -8 118 -5 26 -31 29 -38 5z m21 -60 c-3 -10
-5 -2 -5 17 0 19 2 27 5 18 2 -10 2 -26 0 -35z"/>
<path d="M700 591 c0 -41 4 -71 10 -71 6 0 10 9 10 19 0 30 19 35 26 6 3 -14
12 -25 20 -25 10 0 12 15 10 63 -5 80 -4 77 -16 77 -5 0 -10 -17 -11 -37 l-1
-38 -12 34 c-22 61 -36 50 -36 -28z"/>
<path d="M210 609 c0 -5 5 -7 10 -4 6 3 10 8 10 11 0 2 -4 4 -10 4 -5 0 -10
-5 -10 -11z"/>
<path d="M1137 613 c-4 -3 -7 -11 -7 -17 0 -6 5 -5 12 2 6 6 9 14 7 17 -3 3
-9 2 -12 -2z"/>
<path d="M1777 604 c-4 -4 -7 -25 -7 -46 0 -31 3 -38 20 -38 12 0 20 7 20 18
0 14 -2 15 -10 2 -7 -11 -10 -4 -10 25 0 31 3 37 11 25 9 -12 10 -12 7 -1 -5
17 -21 25 -31 15z"/>
<path d="M2928 603 c7 -3 16 -2 19 1 4 3 -2 6 -13 5 -11 0 -14 -3 -6 -6z"/>
<path d="M1903 560 c0 -25 2 -35 4 -22 2 12 2 32 0 45 -2 12 -4 2 -4 -23z"/>
<path d="M1936 593 c-3 -3 -6 -21 -6 -40 0 -23 5 -33 15 -33 8 0 15 8 15 18 0
14 -2 15 -10 2 -8 -12 -10 -9 -10 13 0 16 4 26 10 22 6 -3 10 -2 10 4 0 13
-15 22 -24 14z"/>
<path d="M229 581 c-2 -18 -1 -80 1 -98 1 -13 4 -11 10 7 5 16 8 19 9 8 1 -9
5 -19 9 -22 5 -3 8 20 8 52 -1 46 -4 57 -18 60 -10 2 -18 -1 -19 -7z m27 -26
c1 -8 -2 -17 -7 -21 -5 -3 -9 7 -9 22 0 27 12 26 16 -1z"/>
<path d="M355 580 c17 -4 24 -8 18 -9 -9 -1 -13 -18 -13 -51 0 -43 3 -50 20
-50 14 0 20 7 20 23 -1 21 -1 22 -15 3 -14 -18 -15 -17 -15 23 0 38 2 42 15
31 16 -13 20 -3 9 24 -4 10 -17 16 -38 15 l-31 -1 30 -8z"/>
<path d="M408 583 c7 -3 16 -2 19 1 4 3 -2 6 -13 5 -11 0 -14 -3 -6 -6z"/>
<path d="M448 583 c7 -3 16 -2 19 1 4 3 -2 6 -13 5 -11 0 -14 -3 -6 -6z"/>
<path d="M1820 555 c0 -19 5 -35 10 -35 6 0 10 16 10 35 0 19 -4 35 -10 35 -5
0 -10 -16 -10 -35z"/>
<path d="M1852 570 c0 -14 2 -19 5 -12 2 6 2 18 0 25 -3 6 -5 1 -5 -13z"/>
<path d="M1871 559 c-13 -38 -13 -39 -2 -39 9 0 24 60 17 67 -2 2 -9 -10 -15
-28z"/>
<path d="M2926 582 c-9 -15 9 -28 37 -28 19 0 26 4 22 14 -3 7 -5 16 -5 18 0
8 -49 4 -54 -4z m34 -8 c0 -8 -19 -13 -24 -6 -3 5 1 9 9 9 8 0 15 -2 15 -3z"/>
<path d="M800 570 c-10 -6 -5 -9 18 -8 22 1 29 4 20 9 -16 11 -20 11 -38 -1z"/>
<path d="M294 557 c-3 -8 -4 -30 -2 -49 2 -25 8 -33 23 -33 17 0 20 7 20 45 0
35 -4 45 -18 48 -9 2 -20 -3 -23 -11z m26 -38 c0 -22 -4 -38 -9 -35 -9 6 -12
55 -4 69 9 15 13 6 13 -34z"/>
<path d="M421 520 c0 -38 3 -49 9 -35 7 18 8 19 15 3 12 -30 25 -20 14 11 -7
21 -7 36 1 50 6 12 7 21 1 21 -5 0 -12 -8 -16 -17 -7 -17 -8 -16 -15 2 -6 14
-9 3 -9 -35z"/>
<path d="M120 498 c0 -11 8 -18 20 -18 21 0 27 15 10 25 -5 3 -10 0 -10 -7 0
-9 -3 -9 -10 2 -8 13 -10 12 -10 -2z"/>
<path d="M171 497 c-1 -21 21 -18 27 4 3 12 2 12 -6 0 -8 -11 -10 -11 -15 0
-4 10 -6 8 -6 -4z"/>
<path d="M593 503 c9 -2 23 -2 30 0 6 3 -1 5 -18 5 -16 0 -22 -2 -12 -5z"/>
<path d="M492 468 c-2 -28 2 -38 13 -38 11 0 15 10 14 38 l-2 37 -7 -35 -7
-35 -5 35 -5 35 -1 -37z"/>
<path d="M787 487 c-3 -8 1 -14 9 -14 8 0 14 6 14 14 0 7 -4 13 -9 13 -5 0
-11 -6 -14 -13z"/>
<path d="M820 485 c0 -8 9 -15 20 -15 11 0 20 7 20 15 0 8 -9 15 -20 15 -11 0
-20 -7 -20 -15z"/>
<path d="M532 460 c0 -19 2 -27 5 -17 2 9 2 25 0 35 -3 9 -5 1 -5 -18z"/>
<path d="M552 460 c0 -19 2 -27 5 -17 2 9 2 25 0 35 -3 9 -5 1 -5 -18z"/>
<path d="M571 460 c-1 -34 -1 -34 15 -12 8 12 13 28 11 35 -3 6 -6 3 -7 -8
l-1 -20 -9 20 c-7 16 -9 14 -9 -15z"/>
<path d="M660 462 c0 -18 4 -32 9 -32 4 0 7 12 5 26 -4 38 -14 42 -14 6z"/>
<path d="M1774 469 c-3 -6 -3 -13 0 -16 3 -4 6 -1 6 5 0 6 7 9 15 6 8 -4 15
-4 15 -1 0 11 -30 16 -36 6z"/>
<path d="M2220 471 c0 -5 9 -7 20 -4 11 3 20 7 20 9 0 2 -9 4 -20 4 -11 0 -20
-4 -20 -9z"/>
<path d="M48 448 c-2 -7 -3 -38 -3 -68 0 -49 2 -55 23 -58 12 -2 22 1 22 7 0
6 -4 11 -9 11 -17 0 -20 29 -6 44 19 19 19 26 0 26 -18 0 -15 20 5 37 13 11
12 12 -6 13 -12 0 -24 -6 -26 -12z"/>
<path d="M145 452 c6 -4 8 -27 5 -52 l-6 -45 -8 43 c-10 55 -24 54 -22 -2 0
-24 4 -42 9 -39 4 2 7 -5 7 -17 0 -42 24 -13 35 43 11 56 6 77 -19 77 -7 0 -8
-3 -1 -8z"/>
<path d="M255 452 c6 -4 11 -28 12 -54 2 -43 1 -46 -20 -42 -12 2 -15 1 -7 -2
8 -3 21 -13 28 -22 11 -14 12 -13 12 5 0 32 17 37 24 8 12 -46 26 -26 26 35 0
33 -4 60 -10 60 -5 0 -10 -15 -10 -32 l0 -33 -20 43 c-10 23 -25 42 -32 42 -8
0 -9 -3 -3 -8z"/>
<path d="M353 453 c9 -2 23 -2 30 0 6 3 -1 5 -18 5 -16 0 -22 -2 -12 -5z"/>
<path d="M421 444 c0 -11 3 -14 6 -6 3 7 2 16 -1 19 -3 4 -6 -2 -5 -13z"/>
<path d="M1090 450 c0 -5 5 -10 11 -10 5 0 7 5 4 10 -3 6 -8 10 -11 10 -2 0
-4 -4 -4 -10z"/>
<path d="M455 439 c-10 -15 3 -25 16 -12 7 7 7 13 1 17 -6 3 -14 1 -17 -5z"/>
<path d="M198 430 c-1 -5 -1 -32 0 -60 3 -41 7 -50 23 -50 23 0 24 7 4 26 -16
17 -21 39 -6 29 5 -3 12 -1 16 5 3 5 1 10 -4 10 -6 0 -11 7 -11 15 0 8 5 15
10 15 6 0 10 5 10 10 0 13 -37 13 -42 0z"/>
<path d="M350 430 c0 -5 5 -10 10 -10 6 0 10 -22 10 -50 0 -27 5 -50 10 -50 6
0 10 20 10 44 0 24 3 51 6 60 5 12 0 16 -20 16 -14 0 -26 -4 -26 -10z"/>
<path d="M1511 424 c0 -11 3 -14 6 -6 3 7 2 16 -1 19 -3 4 -6 -2 -5 -13z"/>
<path d="M678 413 c7 -3 16 -2 19 1 4 3 -2 6 -13 5 -11 0 -14 -3 -6 -6z"/>
<path d="M1254 408 c-3 -4 2 -8 10 -8 8 0 17 4 20 8 3 5 -2 9 -10 9 -8 0 -17
-4 -20 -9z"/>
<path d="M2458 413 c7 -3 16 -2 19 1 4 3 -2 6 -13 5 -11 0 -14 -3 -6 -6z"/>
<path d="M1350 389 c0 -5 4 -8 9 -5 5 4 12 0 14 -6 3 -8 6 -6 6 5 1 9 -6 17
-14 17 -8 0 -15 -5 -15 -11z"/>
<path d="M1396 389 c2 -4 11 -6 19 -2 8 3 15 0 15 -6 0 -6 5 -11 11 -11 24 0
1 25 -24 26 -14 1 -24 -3 -21 -7z"/>
<path d="M1462 380 c0 -14 2 -19 5 -12 2 6 2 18 0 25 -3 6 -5 1 -5 -13z"/>
<path d="M1493 390 c5 -21 37 -26 37 -6 0 9 -4 16 -10 16 -5 0 -10 -6 -10 -12
0 -9 -4 -8 -11 2 -9 13 -10 13 -6 0z"/>
<path d="M1541 384 c0 -11 3 -14 6 -6 3 7 2 16 -1 19 -3 4 -6 -2 -5 -13z"/>
<path d="M1581 384 c0 -11 3 -14 6 -6 3 7 2 16 -1 19 -3 4 -6 -2 -5 -13z"/>
<path d="M2577 386 c-10 -26 -8 -43 3 -26 8 12 10 12 11 -5 0 -11 3 -15 5 -9
3 6 1 21 -4 34 -8 20 -9 21 -15 6z"/>
<path d="M2608 370 c2 -16 8 -27 13 -24 13 8 11 30 -4 43 -11 8 -13 5 -9 -19z"/>
<path d="M2758 390 c-1 -5 -1 -32 0 -60 4 -44 7 -50 25 -49 17 1 18 2 5 6 -17
4 -25 51 -19 101 2 14 -6 16 -11 2z"/>
<path d="M2785 390 c3 -5 10 -10 16 -10 5 0 9 5 9 10 0 6 -7 10 -16 10 -8 0
-12 -4 -9 -10z"/>
<path d="M2823 385 c-1 -5 -4 -32 -8 -60 -5 -37 -4 -46 4 -35 10 13 12 13 21
0 8 -12 10 -12 10 5 0 11 -4 35 -9 52 -8 27 -6 35 7 42 15 9 14 10 -4 8 -11 0
-21 -6 -21 -12z"/>
<path d="M2637 374 c5 -13 7 -13 14 -2 8 12 10 11 13 -11 3 -22 12 -18 12 4 0
19 -5 25 -23 25 -16 0 -21 -4 -16 -16z"/>
<path d="M2700 336 c0 -50 2 -56 21 -56 18 0 20 5 17 52 -2 41 -7 54 -20 56
-15 3 -18 -5 -18 -52z m25 25 c3 -5 1 -12 -5 -16 -5 -3 -10 1 -10 9 0 18 6 21
15 7z m-2 -46 c4 -8 2 -17 -3 -20 -6 -4 -10 3 -10 14 0 25 6 27 13 6z"/>
<path d="M2870 325 c0 -38 3 -45 20 -45 13 0 20 7 20 20 0 25 -17 26 -23 3 -3
-10 -5 0 -5 22 0 22 2 34 5 28 7 -18 23 -16 23 2 0 8 -9 15 -20 15 -17 0 -20
-7 -20 -45z"/>
<path d="M2920 325 c0 -43 12 -60 23 -32 4 10 6 10 6 0 1 -7 5 -13 11 -13 6 0
6 9 0 26 -7 19 -7 31 1 40 7 8 9 18 5 21 -4 4 -11 1 -16 -7 -7 -10 -10 -11
-10 -2 0 6 -4 12 -10 12 -5 0 -10 -20 -10 -45z"/>
<path d="M401 344 c0 -11 3 -14 6 -6 3 7 2 16 -1 19 -3 4 -6 -2 -5 -13z"/>
<path d="M1380 349 c0 -5 9 -9 20 -9 11 0 20 2 20 4 0 2 -9 6 -20 9 -11 3 -20
1 -20 -4z"/>
<path d="M1388 323 c7 -3 16 -2 19 1 4 3 -2 6 -13 5 -11 0 -14 -3 -6 -6z"/>
<path d="M420 310 c0 -5 7 -10 15 -10 8 0 15 5 15 10 0 6 -7 10 -15 10 -8 0
-15 -4 -15 -10z"/>
<path d="M15 304 c6 -2 9 -30 7 -64 -4 -55 -2 -60 17 -60 15 0 21 6 21 23 0
18 -2 19 -10 7 -7 -11 -10 -3 -10 30 0 35 3 42 11 30 9 -12 10 -11 6 5 -3 17
1 20 30 19 18 -1 36 2 39 7 3 5 -23 9 -58 8 -35 0 -58 -2 -53 -5z"/>
<path d="M158 303 c7 -3 16 -2 19 1 4 3 -2 6 -13 5 -11 0 -14 -3 -6 -6z"/>
<path d="M198 303 c6 -2 18 -2 25 0 6 3 1 5 -13 5 -14 0 -19 -2 -12 -5z"/>
<path d="M242 285 c-1 -14 2 -25 6 -25 4 0 9 11 10 25 1 14 -2 25 -6 25 -4 0
-9 -11 -10 -25z"/>
<path d="M293 282 c1 -23 17 -24 39 -2 16 15 15 16 -12 18 -23 2 -28 -2 -27
-16z"/>
<path d="M368 293 c6 -2 18 -2 25 0 6 3 1 5 -13 5 -14 0 -19 -2 -12 -5z"/>
<path d="M1515 290 c3 -5 8 -10 11 -10 2 0 4 5 4 10 0 6 -5 10 -11 10 -5 0 -7
-4 -4 -10z"/>
<path d="M2620 290 c0 -5 7 -7 15 -4 8 4 15 8 15 10 0 2 -7 4 -15 4 -8 0 -15
-4 -15 -10z"/>
<path d="M2656 283 c-6 -14 -5 -15 5 -6 7 7 10 15 7 18 -3 3 -9 -2 -12 -12z"/>
<path d="M176 281 c-7 -11 5 -101 13 -101 4 0 11 21 18 48 8 35 8 49 -1 54
-15 10 -24 10 -30 -1z m24 -16 c0 -8 -2 -15 -4 -15 -2 0 -6 7 -10 15 -3 8 -1
15 4 15 6 0 10 -7 10 -15z"/>
<path d="M80 230 c0 -27 5 -50 10 -50 6 0 10 23 10 50 0 28 -4 50 -10 50 -5 0
-10 -22 -10 -50z"/>
<path d="M110 270 c0 -5 5 -10 10 -10 13 0 13 -66 0 -91 -10 -18 -7 -19 39
-17 28 1 45 6 38 10 -7 4 -24 5 -38 3 -26 -5 -26 -4 -21 43 3 26 9 49 13 50
19 7 8 22 -16 22 -14 0 -25 -4 -25 -10z"/>
<path d="M2902 258 c-7 -7 -11 -26 -11 -42 2 -30 2 -30 6 -4 6 41 33 45 34 5
l1 -32 7 30 c11 44 -11 69 -37 43z"/>
<path d="M2770 248 c0 -9 5 -20 10 -23 6 -3 10 -14 10 -23 0 -12 -3 -13 -8 -5
-4 7 -13 9 -21 4 -9 -6 -7 -10 9 -14 28 -7 34 12 15 49 -9 18 -15 23 -15 12z"/>
<path d="M2818 220 c2 -16 5 -30 7 -30 2 0 5 14 7 30 3 19 0 30 -7 30 -7 0
-10 -11 -7 -30z"/>
<path d="M2853 218 c3 -44 22 -42 24 2 l1 35 -7 -35 -8 -35 -6 33 -7 32 3 -32z"/>
<path d="M230 191 c0 -5 5 -13 10 -16 6 -3 10 -2 10 4 0 5 -4 13 -10 16 -5 3
-10 2 -10 -4z"/>
<path d="M2920 171 c0 -6 9 -9 20 -8 11 1 20 5 20 9 0 4 -9 8 -20 8 -11 0 -20
-4 -20 -9z"/>
<path d="M2790 163 c0 -5 11 -9 25 -9 14 -1 25 2 25 7 0 5 -11 9 -25 9 -14 0
-25 -3 -25 -7z"/>
<path d="M40 140 c0 -11 5 -20 10 -20 6 0 10 9 10 20 0 11 -4 20 -10 20 -5 0
-10 -9 -10 -20z"/>
<path d="M90 146 c0 -8 4 -17 9 -20 5 -4 7 3 4 14 -6 23 -13 26 -13 6z"/>
</g>
</svg>
