<?xml version="1.0" encoding="UTF-8" standalone="no"?>
<svg xmlns:rdf="http://www.w3.org/1999/02/22-rdf-syntax-ns#" xmlns="http://www.w3.org/2000/svg" height="450" viewBox="0 0 547 450" width="547" version="1.1" xmlns:cc="http://creativecommons.org/ns#" xmlns:dc="http://purl.org/dc/elements/1.1/">
<path d="m276.64 447.05c0.42586-2.1293 0.003-3.6926-1.525-5.6349-3.6323-4.6178-1.4349-11.205 4.489-13.458 5.4551-2.074 4.2088-7.803-1.3469-6.1915-2.066 0.59929-5.6132 1.5737-7.8825 2.1654-3.3228 0.86632-4.2336 1.6101-4.6786 3.8206-1.0033 4.9844-9.8368 8.047-14.611 5.0656-1.5114-0.94388-2.4-0.84407-4.4512 0.5-1.4096 0.9236-3.0288 1.6793-3.5981 1.6793-1.3198 0-1.361-4.6806-0.0483-5.4919 0.54277-0.33545 1.6836-3.0066 2.5352-5.9358 2.6753-9.2026 3.2672-9.4202 22.201-8.1616 11.917 0.7922 11.59-0.36776-2.0118-7.1338-6.1678-3.068-11.795-6.6957-14.211-9.1613-2.2-2.2451-4.3591-4.0895-4.798-4.0988-4.2815-0.0903-15.745-11.173-21.258-20.552-0.97844-1.6646-1.2441-1.5932-3.6243 0.97377-2.1633 2.333-3.8471 2.9388-10.674 3.8402-15.426 2.0366-17.66 15.699-2.57 15.718 6.5354 0.008 9.8634 8.3637 5.1099 12.829-3.8666 3.6325-9.0885 0.87369-10.27-5.4259-0.38697-2.0627-1.6194-4.1427-2.9847-5.0373-9.8468-6.4519-9.0633-22.281 1.2935-26.13 10.467-3.8907 14.606-5.7054 15.851-6.9504 1.6962-1.6962 1.8987-9.5278 0.32251-12.473-1.957-3.6567-8.0971-11.262-10.278-12.73-8.8464-5.9566-20.267-17.871-23.982-25.021-8.553-16.457-8.8444-43.627-0.55091-51.354 3.0606-2.8514 1.5202-3.2428-2.641-0.67102-8.85 5.46-16.45 24.45-16.45 41.11 0 17.047-5.8224 27.744-18.892 34.71-13.854 7.3843-13.89 13.246-0.10814 17.727 21.272 6.916 26.299 21.582 10.461 30.52-8.5538 4.8275-8.7352 9.8913-0.35432 9.8913 5.8895 0 6.3738 1.3809 0.96569 2.7536-10.959 2.7817-16.498-4.5183-10.057-13.254 5.2723-7.1498 5.5859-8.2114 3.3315-11.279-1.938-2.637-3.2689-3.1944-18.848-7.8937-6.7437-2.0342-12.5-8.6068-12.5-14.273 0-3.9086-1.9626 0.23862-3.0746 6.497-2.5201 14.183-13.795 21.21-23.135 14.418-4.418-3.21-8.106-2.69-7.288 1.03 0.76538 3.4848-1.2018 4.1506-3.693 1.25-6.196-7.2143 1.0083-11.431 13.72-8.0314 7.6454 2.0448 9.9081-1.2361 8.6461-12.537-0.76617-6.8607-0.1467-6.533-9.6735-5.1183-3.2476 0.48227-5.4107-0.0618-11.5-2.8927-6.9835-3.2465-7.9988-3.4493-14.743-2.9447-5.154 0.38567-8.968 0.0579-13.225-1.1367-7.1925-2.0181-8.3219-1.5683-15.451 6.1528-6.4623 6.9993-5.4232 8.7966 4.5195 7.8169 7.621-0.75 10.9 1.58 10.9 7.75 0 1.6743 0.53631 4.5273 1.1918 6.34 1.4079 3.8935 0.52663 5.3009-1.9357 3.0913-0.96587-0.86676-3.4558-1.8914-5.5332-2.2769-2.1401-0.39718-4.214-1.5174-4.7852-2.5846-0.555-1.03-1.616-1.88-2.358-1.88-0.74239 0-2.0476-1.0649-2.9004-2.3665-1.531-2.33-5.68-4.23-5.68-2.6 0 1.9643 2.2745 6.5786 4.0651 8.2468 2.5515 2.3771 2.4459 5.9088-0.3151 10.532-1.2375 2.0724-2.7301 4.6209-3.3168 5.6633-2.3287 4.1371-6.7217 4.8052-4.5178 0.68704 1.4284-2.669 0.67554-4.3029-2.931-6.3616-3.551-2.03-3.861-4.96-0.984-9.3 2.3134-3.4932 2.6135-8.746 0.59524-10.421-1.1337-0.94087-1.9601-0.33732-4.2827 3.1276-2.6993 4.0269-3.22 4.3244-8.3905 4.7934-3.0319 0.275-6.7688 1.3235-8.3041 2.3299-3.895 2.5532-4.1494 1.6523-1.1852-4.1972 1.4117-2.78 2.567-5.74 2.567-6.57 0-2.15 5.216-4.56 9.881-4.56h3.9799l-0.90888-3.25c-0.49988-1.7875-2.4508-4.6-4.3353-6.25-3.3638-2.9451-3.4338-3.1692-3.8293-12.25-0.42018-9.6476 0.088613-10.896 2.772-6.8004 0.88277 1.3473 3.1469 3.3593 5.0314 4.4712 4.5355 2.676 6.0043 5.9348 4.5523 10.1-1.118 3.21-0.134 6.98 1.819 6.98 0.49028 0 2.3383-2.5875 4.1067-5.75 3.3421-5.9767 12.514-16.25 14.508-16.25 0.62954 0 2.7027-1.0573 4.607-2.3496 7.676-5.209 11.508-5.9288 19.317-3.6279 11.947 3.5201 23.088 3.7708 29.857 0.67164 6.7995-3.1129 7.0697-4.253 1.2162-5.1308-19.517-2.92-23.684-29.56-4.626-29.56 9.2744 0 12.394 3.4244 3.8655 4.2439-8.046 0.77312-11.645 6.9862-6.5636 11.332 10.959 9.3724 26.035 2.9567 28.078-11.949 0.31458-2.2951 1.9145-7.4718 3.5553-11.504 3.43-8.4284 4.5556-7.9161-9.2928-4.2292-23.935 6.3723-47.221-2.9232-53.598-21.397-4.9714-14.401-0.4541-38.13 8.6868-45.63 14.63-12.01 11.899-27.22-6.679-37.19-16.986-9.11-17.899-32.33-1.575-40.08 10.115-4.8 19.574 2.75 15.568 12.42-1.76 4.25-2.993 3.69-2.993-1.37 0-10.853-12.728-9.5423-15.813 1.6285-1.8895 6.8432 0.26216 10.701 9.863 17.684 12.203 8.8754 18.626 18.111 17.759 25.535-0.49085 4.2045 0.0048 4.2774 5.46 0.80354 2.3266-1.4816 6.615-3.6718 9.5299-4.8672 12.501-5.12 21.201-16.53 21.201-27.8 0-13.41-4.85-19.78-28.5-37.42-23.868-17.805-30.17-35.305-17.264-47.94 13.229-12.952 33.914-7.505 32.564 8.578-0.39 4.765-2.87 4.857-4.07 0.152-3.526-13.849-24.112-11.489-25.497 2.924-0.883 9.189 3.828 15.416 22.749 30.076 31.035 24.046 38.646 44.429 22.948 61.46-4.946 5.3658-4.6556 6.3326 1.2592 4.1909 2.3709-0.85848 7.0108-2.0685 10.311-2.689 40.651-7.6433 55.146-19.511 57.971-47.462 1.9157-18.957-4.265-25.91-43.854-49.336-4.34-2.565-8.63-5.114-9.54-5.664-26.05-15.746-26.25-48.375-0.37-60.224 16.01-7.3308 36.29 3.858 36.29 20.024 0 5.6545-8.105 15.618-12.75 15.673-2.7398 0.03276-2.9358-1.5357-0.36402-2.9121 18.511-9.907-2.6905-31.55-21.536-21.985-26.05 13.222-17.85 34.34 21.15 54.463 61.121 31.539 53.429 97.453-13 111.41-4.9933 1.0487-11.147 2.6043-30 7.583-26.386 6.9683-44.38 16.65-51.094 27.492-13.703 22.128-2.354 46.139 23.344 49.386 6.3104 0.79751 6.8846-0.53084 1.4318-3.3126-27.116-13.833-9.6899-48.322 19.306-38.209 13.339 4.652 14.255 4.302 15.977-6.1038 1.3385-8.092 8.2785-12.514 17.063-10.873 4.7339 0.88439 6.5164 0.50798 12.723-2.6868 0.4125-0.21234 0.75 0.24181 0.75 1.0092 0 2.9292-6.1244 6.077-13.061 6.7127-8.2592 0.75704-9.1658 1.4914-12.45 10.085-2.6884 7.0355-8.064 13.561-11.992 14.558-1.9024 0.48264-6.6672-0.51034-19.854-4.1375-17.599-4.8408-24.175 17.208-7.6247 25.563 15.878 8.015 31.601 2.0279 55.48-21.126 16.406-15.907 19.198-17.261 39-18.911 19.676-1.6396 31.266-3.6633 36.5-6.3728 2.475-1.2814 5.6244-2.6813 6.9988-3.111 1.3743-0.42966 5.6493-2.9034 9.5-5.4971 9.5209-6.4131 25.958-14.677 43.682-21.963 4.2247-1.7366 8.2389-3.8293 8.9204-4.6505 0.68153-0.82119 2.7276-2.115 4.5469-2.8751 1.8192-0.76013 4.2159-2.8716 5.3259-4.6922 2.2368-3.6688 2.7132-6.2993 0.64845-3.5805-4.0906 5.3863-16.807 7.3121-24.307 3.6811-4.9499-2.3962-6.1632-5.7043-1.5657-4.2692 15.523 4.8454 24.986-1.8556 25.403-17.988 0.23991-9.2926-0.13135-9.7579-4.6326-5.8058-11.128 9.7708-36.981 15.03-45.02 9.1579-0.55-0.40169-2.125-1.0176-3.5-1.3687-10.96-2.7986-16.305-20.194-8.0867-26.32 2.1483-1.6013 3.5287-0.0118 2.1793 2.5096-5.1015 9.5322 2.561 19.894 15.478 20.931 21.047 1.6894 35.333-16.914 35.426-46.135 0.002-0.48255-1.9572 0.92937-4.3529 3.1376-14.895 13.73-46.582 4.1774-32.582-9.8227 2.9728-2.9728 4.4378-1.9848 4.0951 2.7619-0.70337 9.7416 13.743 11.879 21.437 3.1711 3.4937-3.9538 9.1402-14.153 9.8934-17.871 0.39002-1.925 2.2398-6.2731 4.1106-9.6625 5.0801-9.2038 4.648-9.7092-5.0986-5.9628-11.777 4.5269-24.692-4.1138-21.596-14.448 1.4674-4.8977 4.0865-5.3279 4.1183-0.6764 0.11323 16.55 18.036 9.1209 33.169-13.75 3.4931-5.2789 11.351-11.259 16.023-12.193 2.77-0.561 3.99-3.315 1.48-3.315-9.67 0-10.99-18.964-1.79-25.765 3.9-2.8834 7.269-3.1797 4.7712-0.41964-10.531 11.637 3.8531 18.425 33.41 15.767 15.444-1.3891 22.881 0.83322 22.945 6.8561 0.014 1.3351 1.1591 2.59 3.25 3.5614 1.7756 0.825 3.3929 2.4 3.594 3.5 0.56779 3.1053 1.9073 3.4683 12.861 3.4847 14.556 0.0218 16.9 3.9368 8.7479 14.616-1.9112 2.5038-3.5415 5.0803-3.6229 5.7257-0.09 0.646-0.25 1.849-0.36 2.674-0.11213 0.825-0.27051 2.4002-0.35194 3.5004-0.59085 7.983-11.656 12.68-18.665 7.9236-11.812-8.016-41.536-0.25531-40.281 10.517 0.40855 3.5083 27.565 5.5601 34.827 2.6312 4.1616-1.6786 5.5702 1.863 3.0127 7.5744-4.0401 9.0224-8.214 11.003-14.067 6.6761-3.6376-2.6894-6.0737-1.6885-10.289 4.2271-3.6519 5.1246-7.2154 4.0293-11.407-3.5061-1.201-2.1589-8.1821 0.48266-11.779 4.4569-3.1882 3.523-4.2574 17.683-1.6458 21.797 2.0392 3.2123 11.21 4.2865 17.382 2.0361 8.1977-2.989 21.089-2.2016 32.265 1.9708 19.283 7.1991 31.159 4.4634 30.306-6.981-0.49927-6.6972-5.7643-8.6903-14.056-5.321-2.8666 1.1649-2.1663-3.184 0.82884-5.1464 13.973-9.1553 28.448 13.508 15.577 24.389-3.7082 3.1347-0.68608 3.0124 5.3897-0.21819 2.5582-1.3602 6.2946-2.7362 8.3029-3.0576 7.1839-1.1498 8.3557-1.5825 10.738-3.9644 4.0202-4.0202 3.2577-7.6043-3.0861-14.505-8.6271-9.3841-6.4164-20.027 4.1512-19.985 7.2644 0.0289 7.9895 2.1556 1.1552 3.3881-6.1916 1.1165-6.2432 5.9275-0.10412 9.7216 8.3186 5.1412 10.187 16.999 3.7269 23.651-4.499 4.6325-2.9405 5.2477 3.8344 1.5135 2.8801-1.5874 7.2615-3.7307 9.7365-4.7629s6.7921-2.8846 9.5936-4.1165l5.0936-2.2399 0.61502-9.3628c0.45062-6.86 0.23686-10.425-0.79969-13.335-2.8979-8.1371-1.9703-11.197 5.8279-19.222 3.7455-3.8547 5.8412-5.25 7.8854-5.25 3.2542 0 3.639 1.4721 0.78416 3-2.3254 1.2445-2.6512 3-0.5567 3 6.8485 0 5.0662 14.522-2.5789 21.013-2.4435 2.0747-3.0634 3.5144-3.5522 8.25-0.6632 6.4258 0.21749 7.1832 3.8972 3.3519 1.2598-1.3116 4.1839-3.5553 6.4981-4.9858 3.2394-2.0024 4.4565-3.5254 5.2893-6.6178 2.1637-8.0353 5.602-8.4683 25.003-3.1488 3.3088 0.90721 2.6608 2.403-1.5757 3.6373-2.3583 0.68707-4.0105 2.0852-5.2798 4.4678-2.7296 5.1238-5.9557 7.0672-12.703 7.6529-8.9775 0.77918-17.637 5.3677-12.691 6.7246 5.7264 1.5709 9.106 1.5733 12.243 0.009 8.8911-4.4355 15.178-1.706 20.396 8.8551 5.1319 10.386 4.9289 12.919-0.6586 8.2174-2.1237-1.787-3.6962-2.3736-5.1444-1.9193-7.6204 2.3909-10.495 1.7532-15.674-3.4776-4.0598-4.1006-13.897-7.4449-15.927-5.4148-2.9949 2.9949-2.1989 6.9168 2.4207 11.927 4.8142 5.2208 5.6684 8.5026 3.6172 13.898-0.66779 1.7564-0.61641 3.3599 0.16244 5.0693 0.62656 1.3751 0.88292 2.7565 0.56969 3.0698-0.78 0.78-6.76-2.4-6.76-3.59 0-0.5285-1.54-1.6044-3.4222-2.3908-4.6114-1.9268-6.9759-5.6842-6.1952-9.8451 1.7083-9.1052 1.7969-10.523 0.70041-11.201-1.8677-1.1543-7.3378 3.0128-8.5031 6.4776-0.89662 2.6659-2.1186 3.624-7.1999 5.6449-4.8653 1.935-7.2916 3.7602-11.835 8.9031-3.1432 3.558-7.4767 7.368-9.63 8.4665-6.2646 3.196-4.3861 4.9153 5.4006 4.943 6.4237 0.0182 8.4599-1.2441 9.2726-5.7485 1.2978-7.1935 5.4117-6.3098 5.4117 1.1625 0 10.522-11.607 14.508-23.835 8.1852-7.2298-3.7387-21.489-1.6098-27.165 4.0557-1.375 1.3724-3.9625 3.3579-5.75 4.4123-4.2968 2.5346-4.1042 4.374 0.6057 5.7851 2.1206 0.63536 5.8331 2.887 8.25 5.0036 6.8323 5.9835 11.939 7.613 17.35 5.5366 4.4915-1.7236 5.0682-9.2161 0.89882-11.679-1.7017-1.005-1.7776-3.7016-0.10402-3.6966 2.4239 0.007 7.6714 3.9436 9.2014 6.9024 5.5836 10.798-3.7058 21.708-17.701 20.791-9.2607-0.60694-9.2552-0.62291-2.0803 6.0014 10.279 9.4899 17.787 11.059 21.273 4.4441 2.3382-4.4368 3.438-0.7922 1.252 4.1495-1.5856 3.5844-2.6368 4.646-5.1468 5.1973-6.6809 1.4674 0.88892 5.3078 7.8778 3.9966 3.64-0.69 11.07-7.3 11.07-9.87 0-9.6925 17.667-12.287 25.405-3.7307 3.8194 4.2233 12.626 0.11192 11.053-5.1602-0.94-3.15-3.33-6.73-4.48-6.73-0.54 0-0.98-0.68-0.98-1.5 0-2.7271 2.6874-1.5628 6.8726 2.9777 4.1302 4.4807 4.6403 6.1156 4.219 13.522-0.57231 10.064-19.772 15.883-22.636 6.8606-3.19-10.04-8.75-10.25-9.46-0.36-0.76745 10.744-8.5512 20.765-17.204 22.149-4.9334 0.78888-4.7864 1.7107 0.89653 5.6219 8.9764 6.178 12.003 9.2891 31.176 32.045 10.486 12.446 23.467 12.805 32.101 0.88665 5.82-8.03 19.03-8.64 19.03-0.87 0 0.91919 0.53831 1.6713 1.1962 1.6713 1.5841 0 8.8038 5.0319 8.8038 6.136 0 0.4752-1.9125 0.87829-4.25 0.89575-3.4715 0.0259-4.8626 0.64758-7.5943 3.3939-4.1359 4.1579-7.9515 4.9965-13.992 3.0751-5.2109-1.6576-14.196-0.9047-14.914 1.2497-0.31438 0.94313 2.0041 1.2495 9.4546 1.2495 9.4912 0 10.004 0.11391 13.333 2.9594 1.9042 1.6276 4.1372 2.992 4.9622 3.0318 2.2577 0.10904 4.6171 2.2271 5.4683 4.9091 0.79189 2.495 0.0902 2.587-4.6951 0.61514-1.2618-0.51995-2.0396-0.025-2.8886 1.8384-3.3313 7.3114-14.137 6.7642-17.33-0.87765-0.79882-1.9118-2.0379-3.4822-2.7534-3.4897-0.71557-0.008-2.3135-0.285-3.551-0.61664-3.4274-0.91851-2.8577 1.9519 1.3012 6.5552 5.0811 5.6242 5.3665 9.2641 1.2594 16.062-3.8921 6.4418-6.8105 7.7847-6.8105 3.1337 0-2.3318-0.92451-3.7692-4.0288-6.2638-5.1917-4.1721-5.8107-6.7943-3.0138-12.766 2.0859-4.4536 2.1265-4.9542 0.68125-8.4131-2.56-6.12-9.64-3-9.64 4.24 0 8.25-3.38 12.08-10.64 12.08-1.2883 0-2.9044 0.9-3.5913 2-2.7557 4.4126-3.8837 2.3825-3.1948-5.75 0.8447-9.9712 2.7615-13.479 7.976-14.597 11.73-2.51 14.47-7.65 4.07-7.65-1.7675 0-7.2432-1.9654-12.168-4.3676-4.925-2.4022-10.055-4.7104-11.4-5.1293-3.5023-1.091-11.79-6.2423-17.194-10.687-5.9252-4.8738-6.8608-4.8146-6.8628 0.43436-0.003 9.0019-5.0319 14.332-14.498 15.367-9.0344 0.98774-12.094 5.6519-5.5 8.3834 4.8753 2.0194 2.8678 4.9366-2.4746 3.5957-9.761-2.4499-7.4023-17.215 3.0638-19.178 5.8141-1.0907 9.1969-8.2113 6.3914-13.453-2.25-4.2-12.98-7.76-12.98-4.31 0 2.7406-3.2794 7.1808-6.6403 8.9908-4.1077 2.2121-5.1007 1.2926-3.471-3.2143 2.6448-7.314-5.5151-25.059-8.2482-17.937-0.9365 2.4405-6.8773 5.498-10.691 5.502-6.2087 0.007-8.2443-4.3446-2.7041-5.7802 8.0066-2.0747 11.022-13.829 3.249-12.663-5.8365 0.87524-6.8391-1.0074-2.446-4.5929 2.7485-2.2432 3.3352-3.3944 3.2507-6.378-0.17104-6.0342-2.0099-7.2407-5.7076-3.7451-4.16 3.94-6.78 5.17-11.02 5.17-1.97 0-3.57 0.47-3.57 1.05 0 2.1627 2.9877 6.7123 5.4808 8.3458 3.5303 2.3131 2.3245 3.6046-3.3654 3.6046-4.8337 0-9.1153-2.7703-9.1153-5.8978 0-2.4406-2.503-0.42288-2.8212 2.2743-0.25477 2.1593 1.0555 4.2945 6.3362 10.325l6.6574 7.603-0.70047 7.0976c-1.0818 10.962-4.4531 15.287-14.101 18.092-9.3083 2.706-8.2148 7.0729 1.4907 5.9526 6.2945-0.72654 6.7599 0.9141 1.0785 3.8014-11.309 5.7471-22.667-3.374-18.317-14.709 0.75058-1.956 7.4694-5.5392 10.386-5.5392 12.337 0 11.345-12.74-1.1136-14.301-4.7036-0.5891-7.0678-1.4477-8.949-3.25-3.6652-3.5114-7.3908-3.1077-17.589 1.9059-15.62 7.68-17.73 8.15-36.86 8.15-17.334 0-22.872-0.99661-27.5-4.9486-2.2081-1.8856-17.694-8.5576-23.68-10.202-25.634-7.0433-46.124 14.664-30.05 31.835 5.0797 5.4263 16.062 4.5995 19.774-1.4888 4.1223-6.7607 1.7917-13.149-5.0782-13.919-2.3136-0.25939-2.4468-0.0181-2.156 3.9063 0.44278 5.9753-3.8042 8.323-7.81 4.3173-7.6599-7.6599 3.2218-16.277 14.568-11.536 9.69 4.05 7.07 25.54-3.11 25.54-0.8 0-1.46 0.68-1.46 1.5 0 1.8048 14.218 2.1585 20.007 0.49775 2.4097-0.69133 6.0758-0.64108 11.818 0.162 8.5073 1.1898 8.8604 1.3645 18.616 9.2138 8.5982 6.9178 14.807 4.4793 14.962-5.8762 0.1363-9.0937 7.8624-14.186 13.619-8.9771 2.96 2.68 2.43 3.48-2.32 3.48-5.6808 0-6.7 1.2624-6.7 8.2988 0 12.4-12.346 16.666-22.196 7.669-5.5747-5.0917-5.8709-4.4034-1.8044 4.1924 2.0296 4.2901 2.9995 7.8859 3 11.122 0.003 18.777 21.673 21.031 27.562 2.8668 1.3259-4.0895 2.6783-6.0345 5.7368-8.25 10.573-7.6587 23.128 1.1706 16.358 11.503-2.1333 3.2558-3.6454 2.5542-3.6879-1.7112-0.10167-10.2-11.21-9.1593-13.968 1.309-3.793 14.395-13.904 19.837-30.485 16.408-8.8515-1.8305-8.9874-1.7779-7.6752 2.9742 0.54209 1.9633 0.76115 4.4279 0.48681 5.477-2.2189 8.4849 11.654 14.57 19.776 8.6742 1.8688-1.3568 4.4688-3.2468 5.7776-4.2 7.0514-5.1357 17.704 2.7299 13.092 9.6668-0.83318 1.2532-1.4477 0.96376-3.7347-1.759-2.7908-3.3225-7.3783-4.4401-8.7978-2.1432-4.3197 6.9894-15.344 8.339-27.69 3.3898-5.5777-2.236 0.34835 6.1603 9.1127 12.911 3.1005 2.3883 9.1956 8.4296 13.545 13.425 10.004 11.492 16.07 11.946 27.377 2.0506 5.3262-4.6609 14.712-3.395 18.275 2.465 1.0296 1.693 3.3336 3.7717 5.1202 4.6194 7.198 3.4152 9.5895 11.514 2.5287 8.5642-4.7942-2.0031-6.3855-1.9227-9.4363 0.47705-4.4212 3.4778-11.725 2.5222-16.934-2.2154-2.3041-2.0959-12.255-1.5485-13.005 0.71544-0.33905 1.0238 10.065 4.5 13.469 4.5 3.1945 0 8.3606 3.1231 10.058 6.0804 0.88705 1.5456 2.3857 3.0123 3.3304 3.2593 2.4858 0.65005 3.1517 4.6906 1.8258 11.078-1.8908 9.1081-6.036 11.834-5.2293 3.4389l0.49423-5.1435-2.891 0.70413c-7.1758 1.7477-7.9264 1.7061-11.391-0.63232-3.063-2.0673-3.5831-3.0381-4.1653-7.775-0.87683-7.1335-4.4951-10.081-7.17-5.8399-0.69701 1.105-0.34583 2.8572 1.2216 6.095 2.5761 5.3216 2.0899 8.9631-1.5394 11.528-1.3281 0.9387-4.3974 3.1692-6.8207 4.9567-5.4823 4.0438-6.6468 4.1038-5.8867 0.30313zm87.08-403.8c3.0384-2.7388 4.6172-7.1834 2.7994-7.881-1.5305-0.58729-7.3983 2.5753-9.5188 5.1303-3.1376 3.7806 2.8552 6.2338 6.7193 2.7507zm48.28 44.126c-3.025-0.81683-10.45-3.0132-16.5-4.8809-14.588-4.5033-17.686-5.2137-26.25-6.0176-7.8513-0.73709-9.306-1.8694-3.7427-2.913 5.0754-0.95215 17.826 1.0376 34.993 5.4607 26.063 6.7153 46.082 0.80452 44.223-13.057-0.69-5.131-0.64-5.093-6.17-5.716-8.38-0.945-4.29-10.253 4.5-10.253 12.261 0 15.472 17.771 5.2534 29.081-7.62 8.438-22.87 11.923-36.3 8.295z"/>
</svg>
