<?xml version="1.0" standalone="no"?><!-- Generator: Gravit.io --><svg xmlns="http://www.w3.org/2000/svg" xmlns:xlink="http://www.w3.org/1999/xlink" style="isolation:isolate" viewBox="0 0 200 200" width="200" height="200"><defs><clipPath id="_clipPath_X92ryTPOkdzIU3wm7iPz46Y3t6OEtRLM"><rect width="200" height="200"/></clipPath></defs><g clip-path="url(#_clipPath_X92ryTPOkdzIU3wm7iPz46Y3t6OEtRLM)"><g id="Group"><path d=" M 189.482 180.853 L 189.482 174.028 C 189.482 123.831 148.728 83.077 98.531 83.077 L 98.531 83.077 C 48.334 83.077 7.58 123.831 7.58 174.028 L 7.58 180.853 L 189.482 180.853 Z " fill="rgb(226,227,230)"/><path d="M 80.034 104.803 L 107.634 104.803 C 112.711 104.803 116.834 108.925 116.834 114.003 L 116.834 141.603 C 116.834 146.681 112.711 150.803 107.634 150.803 L 80.034 150.803 C 74.956 150.803 70.834 146.681 70.834 141.603 L 70.834 114.003 C 70.834 108.925 74.956 104.803 80.034 104.803 Z" style="stroke:none;fill:#2D85B5;stroke-miterlimit:10;"/><path d=" M 77.009 127.803 C 77.009 118.517 84.548 110.979 93.834 110.979 C 103.119 110.979 110.658 118.517 110.658 127.803 C 110.658 137.088 103.119 144.627 93.834 144.627 C 84.548 144.627 77.009 137.088 77.009 127.803 Z " fill="rgb(12,12,12)"/><path d=" M 123.602 156.895 C 123.602 151.615 127.889 147.328 133.169 147.328 C 138.449 147.328 142.736 151.615 142.736 156.895 C 142.736 162.175 138.449 166.462 133.169 166.462 C 127.889 166.462 123.602 162.175 123.602 156.895 Z " fill="rgb(45,133,181)"/><rect x="7.279" y="181.027" width="181.488" height="17.357" transform="matrix(1,0,0,1,0,0)" fill="rgb(45,133,181)"/><rect x="7.279" y="181.027" width="4.606" height="17.357" transform="matrix(1,0,0,1,0,0)" fill="rgb(226,227,230)"/><rect x="32.548" y="181.027" width="4.606" height="17.357" transform="matrix(1,0,0,1,0,0)" fill="rgb(226,227,230)"/><rect x="57.817" y="181.027" width="4.606" height="17.357" transform="matrix(1,0,0,1,0,0)" fill="rgb(226,227,230)"/><rect x="83.086" y="181.027" width="4.606" height="17.357" transform="matrix(1,0,0,1,0,0)" fill="rgb(226,227,230)"/><rect x="108.355" y="181.027" width="4.606" height="17.357" transform="matrix(1,0,0,1,0,0)" fill="rgb(226,227,230)"/><rect x="133.624" y="181.027" width="4.606" height="17.357" transform="matrix(1,0,0,1,0,0)" fill="rgb(226,227,230)"/><rect x="158.893" y="181.027" width="4.606" height="17.357" transform="matrix(1,0,0,1,0,0)" fill="rgb(226,227,230)"/><rect x="184.162" y="181.027" width="4.606" height="17.357" transform="matrix(1,0,0,1,0,0)" fill="rgb(226,227,230)"/></g></g></svg>